<svg width="23" height="26" viewBox="0 0 23 26" fill="none" xmlns="http://www.w3.org/2000/svg">
<path d="M11.3056 2.50648C13.8757 -0.414178 18.0458 -0.414178 20.6178 2.50593C23.1238 5.35118 23.1882 9.91891 20.8106 12.8524L20.604 13.0984L10.9445 24.0631L10.9043 24.1008C9.30039 25.7418 6.82623 25.6861 5.28139 23.9321C3.83354 22.2883 3.69949 19.7177 4.87926 17.9023C4.90488 17.8457 4.93589 17.7913 4.97234 17.74L5.03113 17.6656L5.12652 17.5563L5.28139 17.372L5.28459 17.3756L13.4466 8.08575C13.7385 7.75348 14.1958 7.72263 14.5184 7.99363L14.6109 8.084C14.9036 8.41538 14.9307 8.9346 14.692 9.30087L14.6125 9.40583L6.27601 18.8936C5.48827 19.9848 5.54302 21.5978 6.44026 22.6164C7.3503 23.6496 8.79885 23.6988 9.76019 22.764L19.4556 11.7591C21.3826 9.56869 21.3826 6.01786 19.4535 3.82777C17.5849 1.70612 14.5913 1.63982 12.6522 3.62887L12.468 3.82777L12.4542 3.8456L1.98644 15.7301C1.66494 16.0951 1.14369 16.0951 0.822178 15.7301C0.529911 15.3984 0.503336 14.879 0.742464 14.5132L0.822178 14.4083L11.3037 2.50593L11.3056 2.50648Z" fill="white"/>
</svg>
