<svg width="50" height="63" viewBox="0 0 50 63" fill="none" xmlns="http://www.w3.org/2000/svg">
<path d="M16.7775 54.2339H33.2127C32.5497 58.7582 29.1229 62.2052 24.9951 62.2052C20.8672 62.2052 17.4404 58.7582 16.7775 54.2339ZM24.9951 0C36.5011 0 45.8288 10.7129 45.8288 23.928V36.6848L49.7686 46.7668C49.9211 47.157 50 47.58 50 48.0079C50 49.6819 48.8186 51.0387 47.3611 51.0387H2.6396C2.26795 51.0387 1.90053 50.9488 1.56133 50.7743C0.231106 50.0902 -0.364516 48.2972 0.230995 46.7693L4.16135 36.6861L4.16163 23.8868L4.17391 23.0894C4.56022 10.2298 13.7612 0 24.9951 0Z" fill="#FAA852"/>
</svg>
