<svg width="66" height="71" viewBox="0 0 66 71" fill="none" xmlns="http://www.w3.org/2000/svg">
<path d="M25.8262 15.1497C26.7767 16.3578 27.1764 17.9096 27.0604 19.465L38.8408 21.1728C39.1714 21.2208 39.5094 21.0039 39.6522 20.652L43.2394 11.8088C42.9552 11.5755 42.6904 11.3056 42.4498 10.9998C40.4701 8.48329 40.8794 4.47616 43.364 2.04944C45.8487 -0.377282 49.4676 -0.304404 51.4473 2.21207C53.1533 4.38071 53.0851 7.65642 51.4437 10.0735L64.6304 35.9584C65.7648 38.1851 65.2142 41.1393 63.32 42.9893L36.6872 69.0013C34.7929 70.8514 32.0923 71.0726 30.2598 69.5278L8.9566 51.5701C6.59082 53.0669 3.6673 52.7131 1.96125 50.5444C-0.0184118 48.0279 0.390901 44.0207 2.87548 41.5941C5.36006 39.1674 8.97904 39.2402 10.9587 41.7567C11.1993 42.0626 11.4046 42.3904 11.5752 42.7348L19.9133 39.9307C20.245 39.8192 20.4824 39.4741 20.4831 39.1026L20.5069 25.8658C19.1076 25.7905 17.7792 25.1456 16.8288 23.9374C14.8491 21.4209 15.2584 17.4138 17.743 14.987C20.2276 12.5603 23.8466 12.6332 25.8262 15.1497ZM42.8345 46.8824C45.3192 44.4557 45.7285 40.4486 43.7487 37.9321C41.769 35.4155 38.1502 35.3427 35.6655 37.7694C33.1809 40.1962 32.7716 44.2032 34.7513 46.7198C36.731 49.2363 40.3499 49.3091 42.8345 46.8824Z" fill="#FFBB36"/>
</svg>
