<svg width="76" height="73" viewBox="0 0 76 73" fill="none" xmlns="http://www.w3.org/2000/svg">
<path d="M61.1253 18.1579C61.1253 20.6694 59.0264 22.7055 56.4378 22.7055C53.8488 22.7055 51.7503 20.6694 51.7503 18.1579C51.7503 15.6463 53.8488 13.6103 56.4378 13.6103C59.0264 13.6103 61.1253 15.6463 61.1253 18.1579ZM50.8124 0.149414C37.2592 0.149414 26.25 10.83 26.25 23.9787C26.25 25.3874 26.4381 26.745 26.6642 27.9952C26.731 28.3643 26.6089 28.685 26.4047 28.8832L3.02044 51.5694C1.08649 53.4455 0 55.9904 0 58.6436V66.544C0 70.0602 2.93813 72.9106 6.5625 72.9106H15.9375C19.5619 72.9106 22.5 70.0602 22.5 66.544V61.9964H29.0625C31.6514 61.9964 33.7499 59.9606 33.7499 57.4489V51.0823H40.3124C42.8433 51.0823 44.9058 49.1366 44.9969 46.7028C46.8596 47.1677 48.8238 47.4442 50.8124 47.4442C64.3657 47.4442 75.3749 36.7636 75.3749 23.6149C75.3749 10.4046 64.3015 0.149414 50.8124 0.149414ZM31.8749 23.9787C31.8749 13.8439 40.3657 5.6065 50.8124 5.6065C61.3233 5.6065 69.7499 13.5417 69.7499 23.6149C69.7499 33.7498 61.2592 41.9871 50.8124 41.9871C48.265 41.9871 45.6427 41.3646 43.2956 40.3885C42.4263 40.0273 41.4284 40.1139 40.6394 40.6188C39.8501 41.1238 39.3749 41.9795 39.3749 42.8966V45.6252H32.8124C30.2238 45.6252 28.125 47.661 28.125 50.1727V56.5393H21.5625C18.9736 56.5393 16.875 58.5752 16.875 61.0869V66.544C16.875 67.0464 16.4553 67.4535 15.9375 67.4535H6.5625C6.04474 67.4535 5.625 67.0464 5.625 66.544V58.6436C5.625 57.4376 6.11884 56.281 6.99795 55.4279L30.382 32.7421C31.951 31.2199 32.5713 29.0793 32.2046 27.0522C32.0032 25.9391 31.8749 24.9333 31.8749 23.9787Z" fill="#212121"/>
</svg>
