<svg width="71" height="91" viewBox="0 0 71 91" fill="none" xmlns="http://www.w3.org/2000/svg">
<path d="M55.5262 0.850586C61.0563 0.850586 65.5391 6.39108 65.5391 13.2256V41.4487C63.8526 40.1144 62.02 39.0367 60.0775 38.2613V13.2256C60.0775 10.119 58.04 7.60059 55.5262 7.60059H10.0129C7.49928 7.60059 5.46159 10.119 5.46159 13.2256V69.4756C5.46159 72.5824 7.49928 75.1006 10.0129 75.1006H30.27C30.8973 77.5013 31.7694 79.7662 32.8489 81.8506H10.0129C4.48295 81.8506 0 76.3102 0 69.4756V13.2256C0 6.39108 4.48295 0.850586 10.0129 0.850586H55.5262ZM40.962 39.1006C41.5533 39.1006 42.1005 39.3328 42.5476 39.7274C39.9792 41.2543 37.6686 43.3378 35.7174 45.8506H13.654C12.1458 45.8506 10.9232 44.3395 10.9232 42.4756C10.9232 40.7669 11.9505 39.3548 13.2834 39.1312L13.654 39.1006H40.962ZM13.654 57.1006H30.27C29.7074 59.2525 29.3415 61.5128 29.1973 63.8506H13.654C12.1458 63.8506 10.9232 62.3395 10.9232 60.4756C10.9232 58.7669 11.9505 57.3548 13.2834 57.1312L13.654 57.1006ZM51.8851 21.1006H13.654L13.2834 21.1314C11.9505 21.3549 10.9232 22.7669 10.9232 24.4756C10.9232 26.3395 12.1458 27.8506 13.654 27.8506H51.8851L52.2558 27.8198C53.5884 27.5963 54.6159 26.1842 54.6159 24.4756C54.6159 22.6116 53.3933 21.1006 51.8851 21.1006ZM34.5908 57.6788L36.2191 59.6152C39.1964 63.1558 39.1964 69.0454 36.2191 72.586L34.5908 74.5223C35.3209 77.1031 36.3771 79.4845 37.6959 81.5846L39.8875 80.7845C43.8835 79.3252 48.0533 82.2997 49.0302 87.3055L49.6586 90.527C50.6796 90.7399 51.7275 90.8506 52.7954 90.8506C53.8633 90.8506 54.9112 90.7399 55.9318 90.527L56.5606 87.3055C57.5375 82.2997 61.7073 79.3252 65.7033 80.7845L67.8949 81.5846C69.2137 79.4845 70.27 77.1031 71 74.5223L69.3717 72.586C66.3944 69.0454 66.3944 63.1558 69.3717 59.6152L71 57.6788C70.27 55.0981 69.2137 52.7167 67.8949 50.6165L65.7033 51.4166C61.7073 52.876 57.5375 49.9015 56.5606 44.8957L55.9318 41.6741C54.9112 41.4613 53.8633 41.3506 52.7954 41.3506C51.7275 41.3506 50.6796 41.4613 49.6586 41.6741L49.0302 44.8957C48.0533 49.9015 43.8835 52.876 39.8875 51.4166L37.6959 50.6165C36.3771 52.7167 35.3209 55.0981 34.5908 57.6788ZM52.7954 72.8506C49.8804 72.8506 47.517 69.8284 47.517 66.1006C47.517 62.3728 49.8804 59.3506 52.7954 59.3506C55.7104 59.3506 58.0739 62.3728 58.0739 66.1006C58.0739 69.8284 55.7104 72.8506 52.7954 72.8506Z" fill="#212121"/>
</svg>
