<svg width="40" height="46" viewBox="0 0 40 46" fill="none" xmlns="http://www.w3.org/2000/svg">
<path d="M27.7823 3.07485C30.5771 -0.0394751 35.1087 -0.0396088 37.9039 3.07451C40.6987 6.18837 40.6987 11.2369 37.9041 14.3509L14.0038 40.9827C13.1909 41.8885 12.1684 42.5251 11.05 42.8219L1.84746 45.2631C1.34074 45.3974 0.807702 45.2294 0.439361 44.819C0.0710403 44.4087 -0.07982 43.8149 0.0408202 43.2502L2.232 32.9966C2.4982 31.751 3.06941 30.6121 3.88207 29.7065L27.7823 3.07485ZM35.7825 5.438C34.1591 3.62925 31.5269 3.62934 29.9037 5.43818L28.1213 7.42424L34.0001 13.974L35.7827 11.9876C37.4059 10.1789 37.4057 7.2466 35.7825 5.438ZM31.8789 16.3377L26 9.78786L6.00351 32.0699C5.58337 32.538 5.28805 33.1268 5.15043 33.771L3.52383 41.3825L10.3551 39.5704C10.9334 39.4169 11.4621 39.0877 11.8824 38.6193L31.8789 16.3377ZM1.5 2.96733H25.0504L22.0508 6.30981H1.5C0.671581 6.30981 0 5.56156 0 4.63857C0 3.71558 0.671581 2.96733 1.5 2.96733ZM1.5 11.8806H17.0514L14.0517 15.2231H1.5C0.671581 15.2231 0 14.4748 0 13.5519C0 12.6289 0.671581 11.8806 1.5 11.8806ZM1.5 20.7939H9.05228L6.05263 24.1364H1.5C0.671581 24.1364 0 23.3881 0 22.4651C0 21.5422 0.671581 20.7939 1.5 20.7939Z" fill="white"/>
</svg>
